<mxfile host="app.diagrams.net" modified="2024-02-27T05:13:15.130Z" agent="Mozilla/5.0 (Windows NT 10.0; Win64; x64) AppleWebKit/537.36 (KHTML, like Gecko) Chrome/109.0.0.0 Safari/537.36" version="23.1.5" etag="LGOnKyw7qYqeuIbmC0LH" type="github">
  <diagram name="Page-1" id="M6PGy4sF8QqGyvfBdqNW">
    <mxGraphModel>
      <root>
        <mxCell id="0" />
        <mxCell id="1" parent="0" />
      </root>
    </mxGraphModel>
  </diagram>
</mxfile>
